<svg xmlns="http://www.w3.org/2000/svg" viewBox="0 0 48 48" id="Checklist--Streamline-Ultimate" height="48" width="48">
  <desc>
    Checklist Streamline Icon: https://streamlinehq.com
  </desc>
  <path d="M43 0h-38A5 5 0 0 0 0 5v38A5 5 0 0 0 5 48h38a5 5 0 0 0 5 -5v-38A5 5 0 0 0 43 0Zm-6 19H28a2 2 0 0 1 0 -4h9a2 2 0 0 1 0 4Zm2 16a2 2 0 0 1 -2 2H28a2 2 0 0 1 0 -4h9a2 2 0 0 1 2 2ZM22.6 11.2l-6 8a2 2 0 0 1 -1.46 0.8 2 2 0 0 1 -1.56 -0.58l-3 -3a2 2 0 1 1 2.84 -2.84l1.36 1.38L19.4 8.8a2 2 0 0 1 3.2 2.4Zm0 20 -6 8a2 2 0 0 1 -3.02 0.22l-3 -3a2 2 0 0 1 2.84 -2.84l1.36 1.38L19.4 28.8a2 2 0 0 1 3.2 2.4Z" fill="#073983" stroke-width="2"></path>
</svg>