<svg xmlns="http://www.w3.org/2000/svg" width="248.773" height="146.807" viewBox="0 0 248.773 146.807"><defs><style>.a{fill:#2091c3;}.b{fill:#003f86;}.c{fill:#fdaa00;}</style></defs><g transform="translate(-389.457 -20.148)"><g transform="translate(317.298 -67.339)"><path class="a" d="M72.338,124.063V87.742H95.972V90.1H74.947v14.425H92.8v2.251H74.947v17.291Z"/><path class="a" d="M123.851,121.709v2.354h-24.2V87.742h23.737V90.1H102.264v14.272h18.467v2.251H102.264v15.09Z"/><path class="a" d="M127.892,124.063V87.742h15.091a9.37,9.37,0,0,1,4.247.973,10.83,10.83,0,0,1,3.35,2.583,12.345,12.345,0,0,1,2.2,3.632A11.053,11.053,0,0,1,153.572,99a12.265,12.265,0,0,1-.614,3.862,11.373,11.373,0,0,1-1.739,3.351,9.8,9.8,0,0,1-2.711,2.455,9.5,9.5,0,0,1-3.479,1.279l9.055,14.119h-3.018l-8.8-13.71H130.5v13.71Zm2.609-16.114h12.738a6.621,6.621,0,0,0,3.172-.767,8.047,8.047,0,0,0,2.455-2.021,8.967,8.967,0,0,0,1.56-2.865,10.369,10.369,0,0,0,.538-3.3,9.012,9.012,0,0,0-.639-3.351,9.445,9.445,0,0,0-1.74-2.839,8.721,8.721,0,0,0-2.558-1.97,6.852,6.852,0,0,0-3.146-.741H130.5Z"/><path class="a" d="M184.776,118.384q-5.268,5.936-12.226,5.934a14.958,14.958,0,0,1-6.829-1.585,17.382,17.382,0,0,1-5.4-4.195,19.944,19.944,0,0,1-3.529-5.934,18.662,18.662,0,0,1-1.279-6.753,19.417,19.417,0,0,1,1.253-6.906,19.182,19.182,0,0,1,3.478-5.882A16.746,16.746,0,0,1,165.541,89a15,15,0,0,1,6.7-1.509,18.758,18.758,0,0,1,4.885.588,14.858,14.858,0,0,1,3.889,1.637,12.453,12.453,0,0,1,2.966,2.507,15.646,15.646,0,0,1,2.124,3.2l-2.149,1.279a11.685,11.685,0,0,0-4.885-5.192,14.473,14.473,0,0,0-6.881-1.612,12.271,12.271,0,0,0-5.832,1.381,14.4,14.4,0,0,0-4.45,3.632,16.243,16.243,0,0,0-2.814,5.116,18.19,18.19,0,0,0-.971,5.883,16.8,16.8,0,0,0,4.22,11.2,15.038,15.038,0,0,0,4.629,3.5,12.834,12.834,0,0,0,5.73,1.3,13.657,13.657,0,0,0,6.317-1.535,18.793,18.793,0,0,0,5.755-4.859v-7.008H176.54v-2.1h10.487v17.649h-2.251Z"/><path class="a" d="M206.211,121.914a12.239,12.239,0,0,0,6.113-1.381,10.616,10.616,0,0,0,3.836-3.632,15.419,15.419,0,0,0,1.995-5.116,28.666,28.666,0,0,0,.589-5.78V87.742h2.609V106a29.875,29.875,0,0,1-.794,6.957,16.762,16.762,0,0,1-2.583,5.857,12.823,12.823,0,0,1-4.655,4.016A17.618,17.618,0,0,1,199,122.758a12.947,12.947,0,0,1-4.681-4.144,16.831,16.831,0,0,1-2.506-5.856,30.436,30.436,0,0,1-.742-6.753V87.742h2.609V106a29.116,29.116,0,0,0,.588,5.883,14.512,14.512,0,0,0,2.045,5.09,11,11,0,0,0,3.863,3.581A12.157,12.157,0,0,0,206.211,121.914Z"/><path class="a" d="M248.362,93.779q-3.529-3.939-9.975-3.939-5.32,0-7.75,2.02a6.721,6.721,0,0,0-2.43,5.449,6.1,6.1,0,0,0,.614,2.89,5.273,5.273,0,0,0,1.918,1.969,12.719,12.719,0,0,0,3.3,1.382q2,.563,4.81,1.176,2.914.614,5.294,1.355a15.341,15.341,0,0,1,4.041,1.868,7.9,7.9,0,0,1,2.558,2.762,8.345,8.345,0,0,1,.9,4.042,8.857,8.857,0,0,1-.946,4.194,8.441,8.441,0,0,1-2.66,2.993,12.508,12.508,0,0,1-4.092,1.816,21.214,21.214,0,0,1-5.295.614,20.43,20.43,0,0,1-14.375-5.423l1.381-2.1a16.648,16.648,0,0,0,5.628,3.811,18.988,18.988,0,0,0,7.468,1.407,13.624,13.624,0,0,0,7.443-1.739,5.85,5.85,0,0,0,2.686-5.269,6.05,6.05,0,0,0-.716-3.044,6.438,6.438,0,0,0-2.123-2.174,14.115,14.115,0,0,0-3.556-1.586q-2.148-.664-5.013-1.279-2.916-.613-5.14-1.305a13.538,13.538,0,0,1-3.735-1.739,6.96,6.96,0,0,1-2.276-2.532,8.079,8.079,0,0,1-.768-3.735,9.582,9.582,0,0,1,.947-4.348,9.176,9.176,0,0,1,2.634-3.2,11.776,11.776,0,0,1,4.041-1.969,19.173,19.173,0,0,1,5.218-.665,17.643,17.643,0,0,1,6.292,1.049,14.827,14.827,0,0,1,5.013,3.2Z"/><path class="a" d="M269.591,124.318a15.014,15.014,0,0,1-6.9-1.585,17.812,17.812,0,0,1-5.372-4.144,18.516,18.516,0,0,1-3.479-5.883,19.5,19.5,0,0,1-1.228-6.8,18.881,18.881,0,0,1,1.305-6.958,19.446,19.446,0,0,1,3.581-5.882A17.126,17.126,0,0,1,262.89,89a15.315,15.315,0,0,1,6.753-1.509,14.982,14.982,0,0,1,6.931,1.611,17.432,17.432,0,0,1,5.371,4.22,19.519,19.519,0,0,1,3.454,5.909,19.239,19.239,0,0,1-3.658,19.541,17.333,17.333,0,0,1-5.4,4.042A15.31,15.31,0,0,1,269.591,124.318ZM255.216,105.9a17.484,17.484,0,0,0,1.049,6.01,16.237,16.237,0,0,0,2.967,5.116,14.608,14.608,0,0,0,4.579,3.555,12.847,12.847,0,0,0,5.832,1.33,12.531,12.531,0,0,0,5.908-1.381,14.407,14.407,0,0,0,4.5-3.658,17.338,17.338,0,0,0,2.839-16.983,16.61,16.61,0,0,0-2.992-5.116,14.811,14.811,0,0,0-4.527-3.555,12.44,12.44,0,0,0-5.729-1.33,12.681,12.681,0,0,0-5.935,1.381,14.608,14.608,0,0,0-4.552,3.658,16.806,16.806,0,0,0-2.916,5.141A17.207,17.207,0,0,0,255.216,105.9Z"/><path class="a" d="M293.174,92.654v31.409h-2.609V87.742h1.995l25.475,31.973V87.742h2.609v36.321h-2.4Z"/><path class="b" d="M72.395,176.718V129.573h7.436v40.572h25.3v6.573Z"/><path class="b" d="M108.517,176.718V129.573h7.437v47.145Z"/><path class="b" d="M156.989,164.567a11.014,11.014,0,0,1-1.162,5.113,11.615,11.615,0,0,1-3.121,3.818,14.054,14.054,0,0,1-4.615,2.391,18.829,18.829,0,0,1-5.644.829h-22.51V129.573h24.3a9.31,9.31,0,0,1,4.449,1.063,11.123,11.123,0,0,1,3.387,2.756,12.646,12.646,0,0,1,2.157,3.851,12.959,12.959,0,0,1,.764,4.349,12.664,12.664,0,0,1-1.759,6.475,10.748,10.748,0,0,1-5.014,4.481,11.988,11.988,0,0,1,6.408,4.35A12.452,12.452,0,0,1,156.989,164.567Zm-29.615-28.552v13.878h13.679a6.064,6.064,0,0,0,2.556-.532,6.993,6.993,0,0,0,2.058-1.427,6.26,6.26,0,0,0,1.395-2.158,7.533,7.533,0,0,0,.5-2.79,7.3,7.3,0,0,0-1.727-5.012,5.586,5.586,0,0,0-4.382-1.959Zm21.979,27.158a7.88,7.88,0,0,0-.5-2.789,7.972,7.972,0,0,0-1.328-2.324,6.232,6.232,0,0,0-2.026-1.594,5.715,5.715,0,0,0-2.589-.6H127.374v14.41h15.073a6.576,6.576,0,0,0,2.722-.565,6.963,6.963,0,0,0,2.192-1.527,7.108,7.108,0,0,0,1.461-2.258A7.206,7.206,0,0,0,149.353,163.173Z"/><path class="b" d="M160.773,176.718V129.573h20.518a13.1,13.1,0,0,1,5.876,1.328,15.1,15.1,0,0,1,4.616,3.487A16.469,16.469,0,0,1,194.8,139.3a15.075,15.075,0,0,1,1.1,5.61,15.7,15.7,0,0,1-.664,4.582,16.018,16.018,0,0,1-1.859,4.05,13.061,13.061,0,0,1-2.921,3.221,12.035,12.035,0,0,1-3.786,2.025l11.089,17.928h-8.432l-10.226-16.4H168.21v16.4Zm7.437-22.975h13.015a5.99,5.99,0,0,0,2.888-.7,6.826,6.826,0,0,0,2.224-1.925A9.76,9.76,0,0,0,187.8,148.3a10.647,10.647,0,0,0,.532-3.387,9.124,9.124,0,0,0-.631-3.386,9.742,9.742,0,0,0-1.661-2.789,7.881,7.881,0,0,0-2.39-1.892,6.11,6.11,0,0,0-2.821-.7H168.21Z"/><path class="b" d="M217.812,129.573h6.507l18.592,47.145h-7.836L230.1,163.9H211.9l-4.914,12.815h-7.9Zm10.823,28.819-7.57-20.252-7.835,20.252Z"/><path class="b" d="M244.77,176.718V129.573h20.518a13.1,13.1,0,0,1,5.876,1.328,15.079,15.079,0,0,1,4.615,3.487A16.451,16.451,0,0,1,278.8,139.3a15.075,15.075,0,0,1,1.1,5.61,15.735,15.735,0,0,1-.664,4.582,16.052,16.052,0,0,1-1.859,4.05,13.065,13.065,0,0,1-2.922,3.221,12.019,12.019,0,0,1-3.785,2.025l11.09,17.928h-8.434l-10.226-16.4H252.207v16.4Zm7.437-22.975h13.015a5.99,5.99,0,0,0,2.888-.7,6.826,6.826,0,0,0,2.224-1.925A9.735,9.735,0,0,0,271.8,148.3a10.647,10.647,0,0,0,.531-3.387,9.1,9.1,0,0,0-.631-3.386,9.693,9.693,0,0,0-1.659-2.789,7.9,7.9,0,0,0-2.391-1.892,6.117,6.117,0,0,0-2.822-.7H252.207Z"/><path class="b" d="M286.6,129.573l13.015,23.639,13.148-23.639h8.167l-17.6,30.28v16.865H295.9v-17l-17.464-30.147Z"/><path class="c" d="M195.742,234.294V190.33H72.16v-8.273H204.015v32.6l33.4-32.6h83.152v8.273H240.78Z"/></g></g></svg>